# xmcd CD database file
#
# Track frame offsets:
#	150
#	10505
#	24113
#	31887
#	49267
#	58643
#	63926
#	74207
#	84004
#	93603
#
# Disc length: 1371 seconds
#
# Revision: 1
# Processed by: cddbd v1.5.2PL0 Copyright (c) Steve Scherf et al.
# Submitted via: CDex 1.70beta2
#
DISCID=7505590a
DTITLE=Cantar e Brincar - Vol.09 - 10 indiozinhos
DYEAR=2008
DGENRE=Infantil
TTITLE0=10 indiozinhos
TTITLE1=A mulher do monte
TTITLE2=Se eu fosse um peixinho
TTITLE3=Contente estou
TTITLE4=O sapo nao lava o pe
TTITLE5=Eu conheço um jacare
TTITLE6=Alo alo
TTITLE7=A loja do mestre Andre
TTITLE8=Bem sei que tu podes
TTITLE9=Ponha a cabeca pra frente
EXTD=YEAR: 2008
EXTT0=
EXTT1=
EXTT2=
EXTT3=
EXTT4=
EXTT5=
EXTT6=
EXTT7=
EXTT8=
EXTT9=
PLAYORDER=
